<svg width="104" height="24" viewBox="0 0 104 24" fill="none" xmlns="http://www.w3.org/2000/svg">
<path d="M1.68721 6.31249C0.755773 6.31249 0 7.06513 0 7.99297V9.67318V15.8771C0 18.1112 0.916973 20.142 2.39381 21.6125C3.86985 23.0829 5.90918 23.9961 8.15283 23.9961C10.3965 23.9961 12.4353 23.0829 13.9116 21.6125C15.3887 20.142 16.3057 18.1112 16.3057 15.8771V13.0339C16.3057 12.1058 15.5496 11.3537 14.6179 11.3537C13.6867 11.3537 12.931 12.1058 12.931 13.0339V15.8771C12.931 17.1841 12.3927 18.373 11.5259 19.2365C10.6594 20.0996 9.46504 20.6354 8.15283 20.6354C6.84035 20.6354 5.64594 20.0996 4.77946 19.2365C3.91272 18.373 3.37442 17.1841 3.37442 15.8771V12.8613V9.38223H4.20172C5.04953 9.38223 5.74298 8.69166 5.74298 7.84736C5.74298 7.00307 5.04927 6.31249 4.20172 6.31249H1.68721Z" fill="#0B6DFF"/>
<path d="M8.82323 7.21763C7.3464 8.69764 6.42969 10.7415 6.42969 12.9904V15.8521C6.42969 16.7862 7.18546 17.5435 8.11716 17.5435C9.0486 17.5435 9.80437 16.7862 9.80437 15.8521V12.9904C9.80437 11.6748 10.3424 10.4779 11.2091 9.60885C12.0759 8.74034 13.2703 8.20105 14.5823 8.20105C15.8945 8.20105 17.0894 8.74034 17.9559 9.60885C18.8224 10.4779 19.3607 11.6748 19.3607 12.9904V16.0255V19.5275H18.5334C17.6858 19.5275 16.9924 20.2225 16.9924 21.0721V21.0723C16.9924 21.9219 17.6858 22.6172 18.5334 22.6172H21.0476C21.9796 22.6172 22.7353 21.8597 22.7353 20.926V19.2346V12.9904C22.7353 10.7415 21.8184 8.69764 20.3415 7.21763C18.865 5.73761 16.8259 4.81876 14.5823 4.81876C12.3389 4.81876 10.2995 5.73761 8.82323 7.21763" fill="#0B6DFF"/>
<path d="M39.3583 21.0601C38.7116 21.2263 37.871 21.3975 36.8366 21.5727C35.802 21.7481 34.6658 21.8359 33.4287 21.8359C32.2646 21.8359 31.2902 21.6697 30.5051 21.3373C29.7198 21.0046 29.092 20.543 28.621 19.9518C28.1497 19.3608 27.8128 18.6539 27.6095 17.8317C27.4062 17.0101 27.3047 16.1096 27.3047 15.1305V7.01137H30.6577V14.6039C30.6577 16.1554 30.8836 17.2639 31.3365 17.9288C31.7889 18.5939 32.5786 18.9264 33.7056 18.9264C34.1119 18.9264 34.5412 18.9085 34.9943 18.8709C35.4467 18.8343 35.7838 18.788 36.0055 18.7325V7.01137H39.3583V21.0601Z" fill="black"/>
<path d="M41.9648 7.47916C42.611 7.29479 43.4516 7.11885 44.4865 6.95263C45.5206 6.78641 46.6657 6.7033 47.9223 6.7033C49.1043 6.7033 50.0926 6.86505 50.8872 7.18802C51.6812 7.51151 52.3142 7.96387 52.7852 8.54589C53.2563 9.12791 53.589 9.82986 53.7828 10.6517C53.9766 11.4741 54.0737 12.3744 54.0737 13.3535V21.5H50.7209V13.8801C50.7209 13.104 50.6699 12.4438 50.5687 11.8986C50.4669 11.3542 50.3007 10.9108 50.0697 10.5686C49.8386 10.227 49.5248 9.97767 49.1277 9.82039C48.7303 9.66391 48.2453 9.58501 47.673 9.58501C47.2477 9.58501 46.8046 9.61262 46.343 9.66811C45.8809 9.72361 45.5393 9.7699 45.3176 9.80672V21.5H41.9648V7.47916Z" fill="black"/>
<path d="M59.8896 21.502H56.5369V7.01008H59.8896V21.502ZM60.2499 2.7705C60.2499 3.39881 60.0461 3.89746 59.64 4.26698C59.2334 4.63649 58.7535 4.82086 58.1991 4.82086C57.6265 4.82086 57.1368 4.63649 56.7307 4.26698C56.3241 3.89746 56.1211 3.39881 56.1211 2.7705C56.1211 2.12405 56.3241 1.61619 56.7307 1.24641C57.1368 0.87716 57.6265 0.692271 58.1991 0.692271C58.7535 0.692271 59.2334 0.87716 59.64 1.24641C60.0461 1.61619 60.2499 2.12405 60.2499 2.7705Z" fill="black"/>
<path d="M77.0474 21.502H73.6944V7.01007H77.0474V21.502ZM77.4353 2.77049C77.4353 3.3988 77.2317 3.89745 76.8257 4.26697C76.4191 4.63649 75.9391 4.82085 75.3847 4.82085C74.8119 4.82085 74.3222 4.63649 73.9161 4.26697C73.5095 3.89745 73.3064 3.3988 73.3064 2.77049C73.3064 2.12404 73.5095 1.61618 73.9161 1.2464C74.3222 0.87715 74.8119 0.692262 75.3847 0.692262C75.9391 0.692262 76.4191 0.87715 76.8257 1.2464C77.2317 1.61618 77.4353 2.12404 77.4353 2.77049ZM68.4575 -0.000483499C69.1592 -0.000483499 69.7549 0.0550067 70.2446 0.16573C70.7338 0.276717 71.1175 0.38744 71.3944 0.498426L70.8682 3.21392C70.6091 3.1216 70.2998 3.03849 69.9398 2.96433C69.5797 2.89095 69.1868 2.8536 68.7623 2.8536C67.6538 2.8536 66.8919 3.14922 66.476 3.74044C66.0605 4.33193 65.8527 5.09805 65.8527 6.04012V7.01007H71.1727V9.80866H65.8527V21.502H62.5V5.98463C62.5 4.10049 62.9889 2.63189 63.9683 1.57883C64.9475 0.526042 66.4437 -0.000483499 68.4575 -0.000483499" fill="black"/>
<path d="M89.8218 9.36329C89.452 9.75122 88.967 10.2962 88.3671 10.9978C87.7667 11.7003 87.1244 12.4806 86.4409 13.3396C85.7571 14.1986 85.0691 15.0949 84.3764 16.0272C83.6836 16.9603 83.0603 17.8517 82.5062 18.7011H89.988V21.5H78.4609V19.4218C78.867 18.683 79.3754 17.8795 79.9848 17.0108C80.5947 16.1429 81.2224 15.27 81.8692 14.3924C82.5156 13.5153 83.1576 12.6792 83.7949 11.8849C84.4324 11.0907 85.0005 10.3979 85.4991 9.80671H78.821V7.00786H89.8218V9.36329Z" fill="black"/>
<path d="M99.8706 12.8302C99.8706 12.3687 99.8056 11.9297 99.6767 11.5139C99.5471 11.0984 99.358 10.7381 99.1087 10.4333C98.8593 10.1284 98.5542 9.88858 98.1942 9.7129C97.8339 9.53748 97.4044 9.44964 96.9058 9.44964C96.3884 9.44964 95.9358 9.54642 95.5479 9.74051C95.1602 9.93461 94.8317 10.1887 94.5643 10.5027C94.2963 10.817 94.0885 11.177 93.941 11.5834C93.7926 11.9897 93.6914 12.4055 93.6359 12.8302H99.8706ZM90.1445 14.3265C90.1445 13.052 90.3336 11.9345 90.7126 10.9737C91.0911 10.0132 91.5945 9.21425 92.2228 8.57674C92.8505 7.93948 93.5709 7.45924 94.3841 7.13602C95.1968 6.81279 96.0281 6.65078 96.8779 6.65078C98.873 6.65078 100.429 7.27015 101.547 8.5073C102.664 9.74551 103.224 11.5928 103.224 14.0493C103.224 14.2341 103.219 14.4422 103.21 14.6728C103.2 14.904 103.186 15.1118 103.168 15.2964H93.6083C93.7006 16.4602 94.1114 17.3604 94.8412 17.998C95.571 18.6352 96.6286 18.954 98.014 18.954C98.8267 18.954 99.5702 18.8803 100.245 18.7323C100.919 18.5844 101.45 18.4274 101.838 18.2612L102.281 21.0043C102.096 21.0972 101.842 21.1939 101.519 21.2952C101.196 21.3972 100.827 21.4893 100.411 21.5724C99.9952 21.6555 99.5471 21.7249 99.0671 21.7804C98.5863 21.8357 98.0972 21.8633 97.5985 21.8633C96.3237 21.8633 95.2155 21.6737 94.2731 21.2952C93.3311 20.917 92.5555 20.3905 91.9456 19.7159C91.3362 19.0418 90.8833 18.2475 90.588 17.3331C90.2923 16.4186 90.1445 15.4166 90.1445 14.3265" fill="black"/>
</svg>
